PathFileType  4	(X/Y/Z) C:\Users\antoi\Documents\MyRepositories\mobilecap\ResultsAnalysis
DataRate	CameraRate	NumFrames	NumMarkers	Units	OrigDataRate	OrigDataStartFrame	OrigNumFrames
100.0	100.0	6	51	mm	100.0	94	150
Frame#	Time	r_knee			r_shank_antsup			r_ankle			r_calc			r_5meta			r_toe			L_knee			L_shank_antsup			L_ankle			L_calc			L_5meta			L_toe			r_sh2			r_sh3			r_sh4			L_sh2			L_sh3			r_thigh1			r_thigh2			r_thigh3			r_thigh4			r_thigh5			L_thigh1			L_thigh2			L_thigh3			L_thigh4			r.ASIS			r.PSIS			L.ASIS			L.PSIS			C7			R_Shoulder			L_Shoulder			R_Sternum			L_Sternum			R_humerus			R_elbow_med			R_elbow_lat			R_forearm			R_wrist_radius			R_wrist_ulna			L_humerus			L_elbow_med			L_elbow_lat			L_forearm			L_wrist_radius			L_wrist_ulna			R_HJC			L_HJC			R_HJC_reg			L_HJC_reg			
		X1	Y1	Z1	X2	Y2	Z2	X3	Y3	Z3	X4	Y4	Z4	X5	Y5	Z5	X6	Y6	Z6	X7	Y7	Z7	X8	Y8	Z8	X9	Y9	Z9	X10	Y10	Z10	X11	Y11	Z11	X12	Y12	Z12	X13	Y13	Z13	X14	Y14	Z14	X15	Y15	Z15	X16	Y16	Z16	X17	Y17	Z17	X18	Y18	Z18	X19	Y19	Z19	X20	Y20	Z20	X21	Y21	Z21	X22	Y22	Z22	X23	Y23	Z23	X24	Y24	Z24	X25	Y25	Z25	X26	Y26	Z26	X27	Y27	Z27	X28	Y28	Z28	X29	Y29	Z29	X30	Y30	Z30	X31	Y31	Z31	X32	Y32	Z32	X33	Y33	Z33	X34	Y34	Z34	X35	Y35	Z35	X36	Y36	Z36	X37	Y37	Z37	X38	Y38	Z38	X39	Y39	Z39	X40	Y40	Z40	X41	Y41	Z41	X42	Y42	Z42	X43	Y43	Z43	X44	Y44	Z44	X45	Y45	Z45	X46	Y46	Z46	X47	Y47	Z47	X48	Y48	Z48	X49	Y49	Z49	X50	Y50	Z50	X51	Y51	Z51	

94	0.93000000	1002.63584	499.83409	-73.28893	1020.23996	437.00987	-80.96488	744.64991	196.53231	-106.19569	680.80546	194.80998	-162.04661	824.03736	67.90290	-56.56178	868.16230	74.69135	-109.33291	891.07387	491.91168	-377.93652	909.61923	403.52056	-385.89941	813.61002	95.16396	-329.25009	750.71638	61.92287	-276.75516	932.89469	40.15319	-353.78222	974.74624	58.15079	-299.68866	950.01938	346.82500	-94.49060	962.33128	475.42610	-46.88917	889.79462	384.54039	-46.04119	821.83199	424.50033	-398.69511	803.59250	304.78673	-389.11235	1004.34439	803.63696	-128.61770	1051.45637	701.41366	-119.78111	1035.61212	676.24635	-56.63944	940.72148	780.45906	-40.04193	982.87218	675.66535	-32.24688	945.97062	815.27219	-399.99481	945.94712	673.95788	-405.47029	835.09724	814.89966	-410.01634	830.00298	681.14403	-389.87487	955.81107	959.58356	-105.27301	771.75365	996.39007	-178.04148	976.33691	947.97078	-336.70151	776.22860	1000.24847	-276.21441	835.93640	1453.87898	-312.41621	919.31790	1452.42757	-151.86139	890.76742	1363.66032	-463.65341	949.09445	1360.84436	-283.49894	948.18732	1348.90546	-319.47110	905.49842	1233.90519	-24.60508	829.75032	1150.79934	-24.20782	875.84996	1153.19353	17.87400	935.61173	1020.47382	23.29952	968.28698	920.29701	3.74702	943.69533	918.70817	43.29753	882.04805	1122.84272	-508.97443	839.89466	1027.50649	-449.64350	853.87374	1026.82910	-505.61555	916.51771	896.46589	-522.98062	960.52190	798.33870	-503.85796	919.84310	786.14462	-517.61543	884.51593	878.58028	-136.50965	880.58183	884.03315	-327.06165	891.60941	881.46878	-143.00332	898.59493	887.49106	-296.25983	
95	0.94000000	1017.63013	502.58024	-73.32520	1037.46673	440.72537	-80.57653	773.90152	186.98079	-106.05468	710.23764	181.91767	-162.02084	859.81152	62.80810	-55.89329	903.56628	71.82511	-108.60628	894.06629	491.76401	-378.30001	911.74752	403.20676	-386.24777	813.79864	95.46767	-329.24112	750.76561	62.20329	-276.69836	932.93054	40.11381	-353.80165	974.72753	58.00224	-299.75432	971.72787	347.62182	-93.98848	977.34565	476.54580	-46.93560	909.33923	382.44385	-45.65644	824.09066	424.83871	-398.72657	804.97920	305.28102	-389.07661	1014.30013	806.28586	-129.57741	1062.78965	704.82478	-120.95976	1048.40478	679.78750	-57.42910	952.01705	782.83107	-39.70608	996.06588	678.60680	-32.08552	953.13755	814.58575	-400.22954	951.70828	673.20969	-405.49028	842.31862	815.28910	-409.77153	835.29980	681.73812	-388.82135	964.73781	960.46196	-105.74551	780.53715	996.83790	-178.52914	985.07024	947.60301	-337.17941	785.11845	1000.38388	-276.71853	845.16183	1454.33222	-312.16444	927.56477	1452.23776	-151.26875	900.60504	1364.67861	-463.41210	958.09238	1361.15926	-283.01838	957.38282	1349.38058	-319.06287	913.11725	1233.56321	-24.16442	837.61143	1150.33296	-24.43804	883.31139	1152.80447	18.03415	943.14993	1020.13856	24.00294	976.19067	920.04216	4.79009	951.21268	918.42457	44.14174	895.66247	1124.32016	-510.20375	854.44832	1027.82610	-452.10500	869.18419	1027.77764	-507.79732	934.73492	898.76470	-525.10476	980.62378	801.34004	-506.01631	940.33487	788.52757	-520.29681	893.38582	879.28385	-136.52458	889.29996	883.79304	-327.09825	900.43137	881.87402	-143.31138	907.58398	887.40949	-296.61341	
96	0.95000000	1032.04202	505.15120	-73.27819	1054.07988	444.45075	-80.00937	803.74023	177.46666	-105.82389	740.47842	169.09340	-161.98310	895.94833	58.10199	-55.07686	939.23548	69.34068	-107.72200	897.25054	491.57985	-378.60859	914.02470	402.87423	-386.51142	814.06124	95.75538	-329.19804	750.85806	62.46026	-276.60680	932.95827	40.08673	-353.81362	974.71104	57.86292	-299.80879	993.20949	348.47875	-93.30980	991.70252	477.48011	-47.07924	928.62304	380.19657	-45.43024	826.50841	425.13549	-398.74875	806.51481	305.74690	-389.04982	1024.10075	808.55853	-130.50173	1073.75833	707.79637	-122.09558	1060.75913	682.96092	-58.20900	963.06802	784.92397	-39.45997	1008.82037	681.29950	-31.99438	960.35342	813.79045	-400.39304	957.55140	672.34187	-405.37717	849.59727	815.62304	-409.57754	840.69913	682.15888	-388.00370	973.68811	961.15367	-106.18170	789.30869	997.11953	-179.02309	993.81362	947.12270	-337.65032	794.02634	1000.38156	-277.22210	854.39605	1454.66561	-311.74056	935.89625	1451.85128	-150.47257	910.39456	1365.67193	-463.05016	967.11549	1361.34365	-282.44128	966.60512	1349.74500	-318.56097	920.86221	1232.95981	-23.68977	845.57615	1149.61378	-24.59841	890.92285	1152.14743	18.23333	950.78548	1019.52068	24.73004	983.91803	919.45483	5.92895	958.81623	917.86053	45.02863	909.11045	1125.83977	-511.33226	868.85608	1028.30426	-454.49142	884.33493	1028.81376	-509.84974	952.76223	901.21526	-527.11693	1000.61209	804.57939	-508.07102	960.67264	791.13143	-522.84347	902.26112	879.81348	-136.55920	898.04105	883.43480	-327.14911	909.24495	882.09436	-143.63225	916.61271	887.18826	-296.99467	
97	0.96000000	1045.87433	507.48544	-73.16018	1070.04323	448.15716	-79.31436	834.13675	168.12224	-105.52283	771.51029	156.48724	-161.96213	932.34414	53.90128	-54.10031	975.07836	67.31751	-106.66909	900.60238	491.36451	-378.87073	916.43126	402.52900	-386.71067	814.37546	96.03254	-329.13132	750.99537	62.68423	-276.48654	932.97788	40.06486	-353.81363	974.72591	57.74619	-299.85365	1014.41853	349.36282	-92.51117	1005.50150	478.13314	-47.26590	947.67838	377.74771	-45.36909	829.06423	425.40785	-398.77779	808.18173	306.20095	-389.03330	1033.71203	810.44682	-131.34134	1084.36133	710.33877	-123.10726	1072.64468	685.75428	-58.91987	973.81756	786.73137	-39.29761	1021.07933	683.69018	-31.93602	967.64071	812.88440	-400.48759	963.45660	671.39011	-405.15072	856.94001	815.91241	-409.45433	846.24990	682.37799	-387.52748	982.64479	961.65141	-106.58561	798.08617	997.24394	-179.51245	1002.56426	946.52408	-338.10959	802.95097	1000.25529	-277.71493	863.64915	1454.88105	-311.14465	944.30407	1451.27289	-149.48793	920.17199	1366.63832	-462.56039	976.18554	1361.41083	-281.76560	975.86607	1350.00877	-317.96102	928.74434	1232.09716	-23.19137	853.66993	1148.63607	-24.70618	898.68024	1151.22535	18.45838	958.51312	1018.62667	25.48200	991.40303	918.53085	7.17465	966.48575	917.01401	45.94992	922.40580	1127.38660	-512.35915	883.08137	1028.94816	-456.80383	899.32571	1029.92105	-511.76911	970.58036	903.80352	-529.01458	1020.46074	808.03942	-510.01021	980.83357	793.93542	-525.24400	911.13107	880.16694	-136.61081	906.79339	882.96251	-327.21215	918.05177	882.12921	-143.95696	925.65261	886.83385	-297.39064	
98	0.97000000	1059.13348	509.52669	-72.98925	1085.36995	451.79492	-78.55432	865.06313	159.06148	-105.17608	803.30810	144.22318	-161.96770	968.91607	50.30322	-52.99115	1011.01420	65.81198	-105.47926	904.07571	491.12298	-379.10066	918.93229	402.17591	-386.87500	814.72032	96.30672	-329.05198	751.16607	62.88342	-276.35416	932.99563	40.03891	-353.79721	974.80766	57.66165	-299.89263	1035.31480	350.23683	-91.66433	1018.85628	478.41509	-47.43356	966.56954	375.06414	-45.42106	831.72779	425.67031	-398.82724	809.94521	306.65500	-389.02759	1043.09959	811.94283	-132.04942	1094.63265	712.48043	-123.92412	1084.04458	688.15160	-59.50300	984.21390	788.24442	-39.19230	1032.80402	685.72571	-31.88373	975.02393	811.87462	-400.52248	969.41158	670.39045	-404.84111	864.35204	816.16029	-409.41965	851.99839	682.40912	-387.43340	991.60640	961.94913	-106.95743	806.89344	997.22320	-179.98714	1011.31856	945.80299	-338.55318	811.89243	1000.02285	-278.18841	872.93226	1454.98301	-310.37694	952.78305	1450.50903	-148.33172	929.97220	1367.57319	-461.93500	985.31718	1361.36891	-280.98761	985.16787	1350.17504	-317.25705	936.77067	1230.98092	-22.67158	861.90735	1147.40136	-24.78398	906.57127	1150.04245	18.69792	966.32708	1017.46393	26.25703	998.68929	917.29907	8.50605	974.20846	915.88942	46.89203	935.56012	1128.94974	-513.28458	897.12425	1029.72309	-459.02637	914.16537	1031.07652	-513.56048	988.18363	906.51045	-530.79159	1040.14108	811.68916	-511.82988	1000.79763	796.91706	-527.48826	919.99216	880.34493	-136.67620	915.54747	882.38201	-327.28478	926.86363	881.97754	-144.27147	934.67821	886.35398	-297.78544	
99	0.98000000	1071.82967	511.23066	-72.78553	1100.11789	455.29346	-77.79771	896.48807	150.38653	-104.80671	835.83013	132.40670	-161.98856	1005.60626	47.38659	-51.81399	1046.97783	64.87053	-104.22004	907.61588	490.86130	-379.31607	921.48814	401.81912	-387.03511	815.08335	96.58617	-328.97023	751.34945	63.08045	-276.22982	933.02346	39.99934	-353.76108	974.99630	57.61522	-299.93118	1055.87611	351.07720	-90.84384	1031.87762	478.26032	-47.52649	985.37284	372.14424	-45.50054	834.46604	425.93521	-398.90992	811.76582	307.11490	-389.03757	1052.24525	813.05084	-132.58373	1104.63552	714.25338	-124.49048	1094.95590	690.13116	-59.90704	994.21982	789.44189	-39.10835	1043.97219	687.35831	-31.82296	982.52225	810.77444	-400.51731	975.40664	669.36857	-404.48703	871.83745	816.36572	-409.48510	857.96264	682.31921	-387.67756	1000.58701	962.04346	-107.29563	815.75336	997.07206	-180.43843	1020.07901	944.96260	-338.97874	820.85629	999.70197	-278.63701	882.25545	1454.97894	-309.43810	961.33422	1449.56836	-147.01560	939.82486	1368.47096	-461.16635	994.52060	1361.22205	-280.10199	994.50830	1350.24184	-316.44116	944.93746	1229.61923	-22.12748	870.29142	1145.91785	-24.85716	914.57629	1148.60557	18.94203	974.22268	1016.04184	27.04831	1005.93559	915.81607	9.87245	981.97980	914.49868	47.83749	948.58074	1130.52199	-514.10724	911.02631	1030.55539	-461.12297	928.86808	1032.25377	-515.23992	1005.57626	909.31500	-532.43873	1059.62464	815.49368	-513.53058	1020.54838	800.05298	-529.56865	928.85080	880.35118	-136.75387	924.30218	881.70316	-327.36616	935.69666	881.64465	-144.56397	943.67838	885.75841	-298.16647	
